<svg version="1.1" id="Layer_1" xmlns="http://www.w3.org/2000/svg" xmlns:xlink="http://www.w3.org/1999/xlink" x="0px" y="0px"
	 width="100%" viewBox="0 0 1470 346" enable-background="new 0 0 1470 346" xml:space="preserve">
<path fill="#FFFFFF" opacity="1.000000" stroke="none" 
	d="
M1471.000000,163.000000 
	C1471.000000,224.307648 1471.000000,285.615295 1471.000000,347.000000 
	C1191.975952,347.000000 912.951843,347.000000 633.463867,346.531342 
	C632.647644,231.867081 632.295227,117.671478 631.942444,3.353184 
	C630.102417,3.353184 628.729126,3.353184 627.000000,3.353184 
	C627.000000,118.124069 627.000000,232.562042 627.000000,347.000000 
	C581.642578,347.000000 536.285156,347.000000 490.622803,346.677673 
	C497.144501,344.185211 499.626221,340.082672 498.035309,333.597595 
	C496.603912,327.762939 491.556244,324.777771 485.273499,326.050293 
	C480.615845,326.993652 477.328766,332.305084 478.024048,337.946198 
	C478.614868,342.739349 482.307770,344.890717 486.000000,347.000000 
	C479.975891,347.000000 473.951752,347.000000 467.463806,346.531342 
	C467.000000,328.140564 467.000000,310.218445 467.000000,291.867920 
	C456.663574,291.867920 447.066406,291.867920 437.372559,291.867920 
	C437.372559,252.054291 437.372559,212.680099 437.372559,173.002777 
	C458.556824,173.002777 479.369843,173.026031 500.182678,172.974991 
	C502.960571,172.968170 503.704468,174.168671 504.096375,176.838226 
	C505.180817,184.225403 506.732391,191.544022 508.061890,198.688629 
	C524.061218,198.688629 539.317566,198.688629 554.600769,198.688629 
	C554.600769,169.667236 554.600769,140.959030 554.600769,112.306168 
	C443.280762,112.306168 332.360260,112.306168 221.394028,112.306168 
	C221.394028,141.322235 221.394028,170.030365 221.394028,198.996353 
	C236.272461,198.996353 250.758530,198.962967 265.244202,199.025070 
	C268.074677,199.037186 268.688507,197.711288 269.098175,195.101379 
	C270.255951,187.725037 271.881500,180.422104 273.313965,173.135071 
	C280.036469,173.135071 286.181335,173.135071 292.467163,173.135071 
	C289.434845,190.538788 280.153625,204.196548 267.136292,215.148361 
	C247.594788,231.589081 224.107330,237.864410 199.107162,238.853546 
	C191.763687,239.144089 184.310455,237.971176 176.977066,236.963058 
	C153.843719,233.783005 132.398254,226.490372 113.885727,211.537720 
	C90.922241,192.990005 81.249878,169.232864 86.218880,140.283157 
	C90.536133,115.130585 104.021400,95.273506 125.188240,81.005211 
	C151.554321,63.232185 180.749832,57.596764 211.825073,63.211723 
	C234.910843,67.383064 256.214874,76.397385 274.614136,91.261520 
	C279.956055,95.577065 285.320099,97.420021 292.211761,97.149666 
	C305.357574,96.633965 318.537964,97.008118 331.704010,96.989510 
	C333.320099,96.987221 334.936005,96.841919 336.620697,96.759537 
	C336.620697,65.707603 336.620697,34.999710 336.620697,4.290945 
	C318.315857,4.290945 300.391907,4.290945 281.899963,4.290945 
	C281.899963,12.604949 281.899963,20.641415 281.899963,28.506531 
	C281.174225,28.697968 280.970703,28.824181 280.871521,28.767569 
	C256.313171,14.751079 230.112549,5.791720 201.893311,2.948498 
	C197.573944,2.513301 193.296722,1.659952 189.000000,1.000000 
	C616.333313,1.000000 1043.666626,1.000000 1471.000000,1.000000 
	C1471.000000,51.102093 1471.000000,101.087166 1470.619019,151.388031 
	C1469.323364,139.493378 1464.344116,133.249649 1452.170288,131.236328 
	C1442.474731,129.632843 1428.914429,133.042465 1427.071533,146.814529 
	C1426.203125,153.303452 1426.202026,159.921936 1426.037354,166.487457 
	C1425.893311,172.231598 1428.193115,177.106461 1431.911743,181.435349 
	C1437.621948,188.082458 1445.234253,188.088440 1453.072510,188.073593 
	C1460.616455,188.059296 1466.144653,185.028137 1470.316162,178.398422 
	C1467.019897,176.128265 1463.880005,173.965759 1460.374146,171.551224 
	C1456.801880,178.094360 1450.780762,178.079330 1445.413208,176.583633 
	C1439.384033,174.903641 1439.212524,168.624771 1437.816772,163.000000 
	C1449.112793,163.000000 1460.056396,163.000000 1471.000000,163.000000 
M876.123413,255.327255 
	C882.967163,242.947601 877.538452,228.337372 864.232361,226.381409 
	C852.090454,224.596558 839.618530,225.056458 827.289062,224.526901 
	C827.289062,250.630035 827.289062,275.687988 827.289062,300.005707 
	C839.297974,300.005707 851.046997,300.579681 862.710083,299.825134 
	C872.138855,299.215149 879.949158,292.370026 880.818054,284.742889 
	C881.344238,280.123383 881.241211,274.914581 879.562012,270.713623 
	C878.023132,266.863831 873.988770,264.011536 870.853516,260.494812 
	C872.044189,259.351532 873.841736,257.625427 876.123413,255.327255 
M1379.116089,133.369492 
	C1373.660767,135.964340 1369.734253,140.285980 1369.114380,146.120026 
	C1368.214111,154.593170 1367.559326,163.298447 1368.526489,171.706070 
	C1369.496094,180.135269 1375.185669,186.399277 1383.840942,187.665298 
	C1389.679199,188.519241 1395.844238,187.140076 1402.078491,186.746246 
	C1403.113647,190.818726 1400.438477,194.872696 1396.368652,196.629059 
	C1389.749634,199.485550 1383.364990,197.821182 1378.418579,191.967239 
	C1375.456665,194.204712 1372.631104,196.339294 1368.682495,199.322113 
	C1370.924805,201.169968 1372.674072,202.733047 1374.546265,204.131653 
	C1380.636597,208.681580 1387.469727,208.673233 1394.747925,208.130905 
	C1409.873535,207.003830 1414.714600,198.232849 1414.933838,185.229050 
	C1415.208618,168.928223 1415.005981,152.619232 1414.989502,136.313782 
	C1414.988037,134.894653 1414.838135,133.475693 1414.754517,132.008484 
	C1410.775269,132.008484 1407.278442,131.907669 1403.791992,132.054291 
	C1402.229492,132.119995 1400.424072,133.374832 1399.181030,132.901871 
	C1392.651123,130.417282 1386.266113,130.317322 1379.116089,133.369492 
M721.330811,127.153572 
	C729.090881,119.485191 740.913574,121.170425 748.029358,131.195862 
	C751.468445,128.589890 754.893188,125.994781 758.584290,123.197876 
	C756.462280,120.821808 754.897522,118.763924 753.030579,117.031685 
	C744.618225,109.226166 734.116455,110.861557 724.095276,111.203148 
	C720.942627,111.310616 717.547058,113.052879 714.802734,114.864899 
	C702.619263,122.909523 704.235413,145.872314 718.334900,151.013000 
	C725.095703,153.478012 732.049866,155.428497 738.749756,158.039658 
	C744.316467,160.209198 746.134033,163.983780 744.997498,169.265076 
	C744.062073,173.611633 740.638245,175.633804 735.145508,176.070892 
	C727.031738,176.716568 720.200684,174.704056 715.385010,167.647018 
	C712.373840,169.739624 709.870483,171.844254 707.045349,173.341797 
	C704.112671,174.896378 704.723755,176.124969 706.533142,178.101501 
	C716.486206,188.974182 729.110840,189.183167 742.295593,187.220581 
	C748.923584,186.234009 753.924866,182.527008 756.631775,176.645096 
	C762.501648,163.890305 758.943909,149.240051 741.753845,144.947464 
	C736.633240,143.668777 731.506348,142.161713 726.658813,140.107056 
	C720.474182,137.485764 719.255371,134.249146 721.330811,127.153572 
M1134.956787,119.564621 
	C1133.297363,122.667610 1131.031982,125.597443 1130.087158,128.904556 
	C1126.642090,140.964203 1127.146973,153.309814 1129.071777,165.504898 
	C1132.360352,186.340927 1148.549805,190.596237 1165.157593,187.226501 
	C1177.698242,184.681992 1182.035400,174.899612 1184.078857,163.000000 
	C1181.907593,163.000000 1179.933105,163.216293 1178.023315,162.956680 
	C1173.520508,162.344604 1170.781128,163.472931 1168.988037,168.293457 
	C1166.459229,175.091919 1160.533081,176.903168 1153.652222,176.004990 
	C1148.130615,175.284225 1144.897339,171.735809 1143.426514,166.829941 
	C1140.125000,155.818481 1140.313477,144.693359 1142.929565,133.499573 
	C1144.192993,128.093735 1147.040771,124.295959 1152.385498,123.092056 
	C1159.603394,121.466171 1166.773804,123.791603 1168.592773,129.684586 
	C1170.648315,136.344437 1174.671387,136.548569 1179.918213,136.009827 
	C1181.216187,135.876556 1182.526733,135.864990 1183.838745,135.797119 
	C1182.930664,125.390816 1178.457520,115.506439 1167.601196,112.498566 
	C1156.247803,109.352966 1144.475342,108.610909 1134.956787,119.564621 
M821.000000,123.517670 
	C821.000000,144.603699 821.000000,165.689728 821.000000,186.685486 
	C825.335815,186.685486 829.070190,186.685486 833.000000,186.685486 
	C833.000000,177.395035 832.915344,168.416763 833.046692,159.441635 
	C833.091675,156.368088 833.452148,153.256104 834.070740,150.244308 
	C834.947144,145.977585 839.272095,142.504501 844.085205,142.551224 
	C848.581604,142.594864 852.252869,144.511337 853.098083,149.504349 
	C853.584290,152.376251 853.928162,155.306564 853.960205,158.214737 
	C854.065857,167.786758 854.000000,177.360703 854.000000,186.787201 
	C858.370300,186.787201 861.988525,186.787201 865.992249,186.787201 
	C865.992249,173.295624 866.715088,159.959274 865.722412,146.751877 
	C865.122559,138.771698 860.719910,133.989883 852.510132,131.892807 
	C845.610474,130.130402 839.430664,130.864334 832.999390,135.680832 
	C832.999390,127.278595 832.999390,119.762108 832.999390,112.298386 
	C828.695312,112.298386 824.960938,112.298386 821.000000,112.298386 
	C821.000000,115.904396 821.000000,119.214195 821.000000,123.517670 
M998.002502,171.202087 
	C1001.062012,183.498123 1008.328552,186.977325 1016.864014,187.796799 
	C1025.998047,188.673767 1035.832153,189.371490 1041.433350,178.349380 
	C1038.144409,176.034515 1035.011353,173.829453 1031.866577,171.616150 
	C1028.507324,176.653076 1022.018494,178.559631 1016.908325,176.393265 
	C1011.998962,174.312057 1009.511108,169.121994 1010.677063,162.801483 
	C1020.999695,162.801483 1031.407104,162.801483 1042.000000,162.801483 
	C1042.000000,159.560959 1042.188965,156.731705 1041.967651,153.934952 
	C1040.943848,141.003784 1037.509399,134.038666 1025.017090,131.547318 
	C1015.512451,129.651779 1003.897522,132.131927 999.591858,142.856018 
	C995.975037,151.864075 996.430786,161.053192 998.002502,171.202087 
M1348.983643,172.493225 
	C1347.793945,173.015503 1346.389526,173.289871 1345.451538,174.102585 
	C1341.197876,177.788757 1333.634766,178.764725 1329.911377,174.789825 
	C1327.214966,171.911163 1326.221313,167.437271 1324.093384,162.870087 
	C1336.196899,162.870087 1346.946045,162.870087 1357.999878,162.870087 
	C1357.999878,159.698410 1358.080078,156.899368 1357.986206,154.106201 
	C1357.569336,141.711090 1352.021362,133.896545 1340.792358,131.430634 
	C1330.707886,129.216064 1315.881470,132.861893 1314.051758,147.171112 
	C1313.137573,154.319916 1312.536377,161.690262 1313.252319,168.813828 
	C1313.938599,175.644623 1317.371094,181.649353 1323.831543,185.373169 
	C1329.279419,188.513260 1335.171143,187.941818 1341.024292,188.000763 
	C1348.235229,188.073380 1353.660156,185.158875 1357.294678,178.367203 
	C1354.567139,176.488770 1352.041504,174.749298 1348.983643,172.493225 
M877.042419,164.124435 
	C877.579407,166.808624 877.885986,169.564117 878.691101,172.165298 
	C883.548279,187.858994 896.413635,189.775085 910.194702,187.259735 
	C915.485413,186.294037 919.556030,183.398361 921.808228,178.311600 
	C918.691956,176.094559 915.807617,174.042542 912.687988,171.823135 
	C908.282715,177.669342 902.393738,178.525101 896.087585,175.934280 
	C891.757812,174.155441 889.707947,168.661087 890.603394,162.847443 
	C900.935913,162.847443 911.336365,162.847443 922.000000,162.847443 
	C922.000000,159.645737 921.909180,156.841537 922.016052,154.044891 
	C922.433960,143.112839 917.696838,133.580933 904.932861,131.435394 
	C894.625916,129.702881 881.540161,132.706848 878.329651,146.538803 
	C877.083313,151.908585 877.399597,157.641037 877.042419,164.124435 
M1129.901367,297.608490 
	C1131.227173,295.869232 1132.552979,294.129974 1134.142090,292.045319 
	C1131.463867,290.224457 1129.177734,288.368439 1126.610840,287.065216 
	C1125.499390,286.500916 1123.217651,286.488007 1122.478516,287.230682 
	C1118.019897,291.710968 1113.086426,292.022919 1107.828735,289.290527 
	C1103.059692,286.812042 1102.860107,281.937317 1101.683594,276.845703 
	C1112.777588,276.845703 1123.326660,276.845703 1134.000000,276.845703 
	C1134.000000,272.166260 1134.730103,267.845825 1133.808228,263.912598 
	C1132.744385,259.373260 1130.803589,254.786118 1128.206177,250.915833 
	C1123.747559,244.272079 1116.382935,245.062454 1109.488281,244.974991 
	C1099.731812,244.851227 1092.940552,250.214111 1091.491821,257.786896 
	C1089.736572,266.961945 1089.352417,276.933258 1090.968262,286.103027 
	C1093.919922,302.852966 1116.856201,305.802734 1129.901367,297.608490 
M1239.000000,154.667786 
	C1238.823486,142.910263 1234.303345,134.248154 1220.489258,131.176193 
	C1213.034668,129.518463 1200.661987,133.093216 1197.207397,138.504990 
	C1189.882446,149.979538 1190.100952,162.620071 1194.173218,174.693192 
	C1199.090698,189.272781 1211.478394,189.350922 1222.930420,187.383865 
	C1230.737671,186.042847 1236.300781,180.783539 1237.839722,172.799622 
	C1238.917480,167.208969 1238.660767,161.361099 1239.000000,154.667786 
M704.000000,273.473389 
	C704.333191,276.549438 704.719360,279.620850 704.989258,282.702454 
	C705.719788,291.041718 711.371887,298.412415 719.155151,300.621979 
	C733.975525,304.829285 747.904785,299.492004 750.393738,285.525421 
	C751.984009,276.601471 750.245178,266.935303 749.073608,257.719543 
	C748.269653,251.395142 743.177368,247.662704 737.321289,246.150742 
	C732.966309,245.026321 728.120422,244.544724 723.717163,245.225357 
	C719.468323,245.882080 714.904358,247.624680 711.543274,250.252014 
	C704.433594,255.809479 704.360474,264.351868 704.000000,273.473389 
M892.000000,251.605988 
	C892.333435,263.178406 892.527283,274.757141 893.052185,286.320862 
	C893.369507,293.311340 899.094910,299.263275 905.936523,301.056915 
	C912.987183,302.905304 919.555359,302.199860 924.445801,299.013550 
	C929.357727,302.361572 933.722046,300.380096 937.684631,301.026611 
	C937.684631,282.307831 937.684631,264.250061 937.684631,246.330597 
	C933.297485,246.330597 929.231384,246.330597 924.999939,246.330597 
	C924.999939,258.136322 925.055237,269.612549 924.972900,281.087799 
	C924.939575,285.733337 920.483826,290.354004 915.756165,290.979401 
	C911.713135,291.514191 907.307373,288.525787 906.018250,284.118195 
	C905.435303,282.125031 905.062683,279.996002 905.044067,277.924561 
	C904.948669,267.341370 905.000000,256.756866 905.000000,246.157684 
	C900.408691,246.157684 896.460754,246.157684 892.000000,246.157684 
	C892.000000,247.749283 892.000000,249.190338 892.000000,251.605988 
M1073.958984,250.665558 
	C1068.144653,243.429703 1052.732300,243.132797 1045.166748,248.554077 
	C1043.970459,245.603897 1041.629517,245.201630 1033.242676,246.529129 
	C1033.242676,264.565216 1033.242676,282.611938 1033.242676,300.746948 
	C1037.219482,300.746948 1040.949219,300.746948 1045.000000,300.746948 
	C1045.000000,297.037170 1044.905640,293.573029 1045.018799,290.115662 
	C1045.293457,281.719055 1045.397949,273.303864 1046.080811,264.937744 
	C1046.638184,258.111206 1052.626587,254.516861 1059.086792,256.558685 
	C1063.746460,258.031464 1065.971924,261.626221 1065.990967,267.936005 
	C1066.023804,278.858612 1066.000000,289.781372 1066.000000,300.727600 
	C1070.259033,300.727600 1073.989746,300.727600 1077.998291,300.727600 
	C1077.998291,287.009521 1078.226685,273.555054 1077.818970,260.119873 
	C1077.729980,257.186920 1075.368774,254.322906 1073.958984,250.665558 
M1204.925049,299.973419 
	C1211.753174,301.604828 1218.440063,302.594238 1225.640381,301.203003 
	C1233.152954,299.751465 1239.743530,294.209381 1239.844727,285.736206 
	C1239.934937,278.183075 1237.176514,271.082611 1228.047974,268.981873 
	C1223.505249,267.936432 1218.920166,267.069458 1214.394897,265.956146 
	C1211.976318,265.361084 1208.919922,264.331024 1210.195435,261.232422 
	C1211.072266,259.101929 1213.570801,256.621765 1215.701904,256.227081 
	C1220.845581,255.274506 1225.768311,256.686737 1229.473267,260.914154 
	C1230.853027,259.964355 1232.171021,259.029419 1233.516357,258.135773 
	C1239.594238,254.098663 1239.369873,253.211044 1233.729126,248.872559 
	C1226.992432,243.691193 1219.359375,244.954056 1211.966553,245.126465 
	C1205.177856,245.284775 1197.704956,251.548584 1197.109131,257.305725 
	C1196.317261,264.957977 1197.061401,272.306580 1206.203491,275.897919 
	C1211.378540,277.930817 1217.168213,278.360107 1222.448486,280.184967 
	C1224.318726,280.831360 1226.562256,283.411499 1226.666138,285.221832 
	C1226.752563,286.725952 1224.232910,289.178528 1222.377563,289.843811 
	C1217.065430,291.748596 1211.955322,290.980194 1207.439575,287.115112 
	C1206.658081,286.446167 1204.585083,286.345001 1203.682617,286.905670 
	C1195.686401,291.873138 1193.190674,291.759186 1202.054688,298.536957 
	C1202.687012,299.020477 1203.466431,299.311584 1204.925049,299.973419 
M1184.982178,294.152405 
	C1189.574951,283.040466 1187.983276,271.579651 1173.956177,268.453186 
	C1169.860962,267.540405 1165.572021,267.233917 1161.671997,265.821045 
	C1159.776855,265.134460 1158.573730,262.537720 1157.057251,260.805725 
	C1158.639038,259.428101 1160.003174,257.469940 1161.842773,256.780090 
	C1167.672852,254.593857 1172.685059,256.372833 1176.807251,261.283600 
	C1180.065308,258.958740 1183.173828,256.740662 1187.099976,253.939026 
	C1183.896362,251.393372 1181.502441,249.099960 1178.748779,247.383896 
	C1172.915283,243.748672 1166.273804,244.820663 1159.961060,245.116699 
	C1152.332397,245.474426 1145.503906,251.441788 1145.000977,257.233917 
	C1143.970947,269.099762 1146.798828,274.159424 1156.669189,277.144104 
	C1161.116943,278.489044 1165.898071,278.784912 1170.271362,280.298157 
	C1172.178345,280.958038 1173.440796,283.481049 1174.995850,285.157959 
	C1173.213867,286.773254 1171.657349,288.804474 1169.603271,289.917542 
	C1165.290649,292.254242 1160.629761,290.951202 1157.220581,288.430603 
	C1152.567261,284.990021 1149.979248,287.221436 1146.372437,289.870605 
	C1143.113403,292.264404 1144.020996,293.425598 1146.176636,295.782990 
	C1152.629517,302.839874 1177.033691,305.540436 1184.982178,294.152405 
M954.655701,249.043045 
	C948.364563,253.938904 949.168030,261.051300 950.391174,267.243011 
	C951.624756,273.488068 957.361450,276.524078 963.480164,277.977356 
	C967.843262,279.013672 972.304993,279.712921 976.565063,281.060822 
	C977.948608,281.498566 979.793152,283.575531 979.713684,284.790680 
	C979.603699,286.470642 978.238647,288.838165 976.767944,289.516357 
	C972.192566,291.626190 966.760315,291.929688 962.896912,288.986328 
	C958.081055,285.317383 955.233459,286.711975 951.276917,289.944855 
	C948.517151,292.199799 948.486328,293.407745 950.955505,295.454224 
	C959.144775,302.241760 968.507751,303.170288 978.482361,301.000092 
	C986.866760,299.175934 991.607666,294.424225 992.032043,287.980438 
	C992.769165,276.789246 989.807922,272.204437 980.047241,269.041168 
	C975.793579,267.662567 971.153931,267.412628 966.987976,265.852966 
	C964.983032,265.102356 963.670227,262.503113 962.044006,260.740997 
	C964.085022,259.161224 965.937500,256.648193 968.205078,256.190155 
	C973.397766,255.141312 978.297546,256.465851 981.763855,261.341125 
	C985.061096,258.901733 988.127197,256.633331 991.197937,254.361496 
	C982.865295,243.633148 965.390442,241.132751 954.655701,249.043045 
M778.538513,134.922989 
	C772.806641,137.835693 769.835205,142.977493 769.166016,148.908981 
	C768.442322,155.322601 768.743103,161.893433 769.060791,168.372940 
	C769.506897,177.471649 774.593689,184.140549 782.868958,186.665161 
	C791.975952,189.443512 801.661072,189.960846 809.682983,182.742416 
	C811.009033,181.549149 811.894592,179.866455 813.081238,178.279495 
	C809.345093,175.898315 806.102600,173.831787 802.826355,171.743744 
	C799.926147,177.622818 794.765198,177.283386 789.936340,176.901031 
	C785.574768,176.555664 782.750854,173.529495 782.093506,169.338776 
	C781.335449,164.505569 781.078552,159.555344 781.054688,154.653732 
	C781.010132,145.511444 790.348999,138.722488 797.607056,143.679565 
	C803.654785,147.810013 806.673645,145.511017 810.663696,142.060608 
	C811.251343,141.552429 812.046448,141.284225 813.584534,140.449921 
	C811.701538,138.762054 810.244324,137.165863 808.516785,135.955444 
	C799.060120,129.329559 789.181152,129.641876 778.538513,134.922989 
M765.000000,280.499847 
	C765.000000,287.258484 765.000000,294.017090 765.000000,300.693512 
	C769.658691,300.693512 773.722900,300.693512 778.184082,300.693512 
	C778.184082,285.995331 778.184082,271.599609 778.184082,256.797729 
	C781.329956,256.797729 784.068481,256.797729 786.684204,256.797729 
	C786.684204,252.970520 786.684204,249.567596 786.684204,245.784943 
	C783.611694,245.784943 780.855591,245.784943 778.124512,245.784943 
	C777.841431,237.515259 777.841431,237.515259 786.627808,236.660095 
	C786.627808,232.797012 786.627808,228.937454 786.627808,223.689987 
	C780.373047,225.358917 773.253601,225.250824 769.683716,228.756958 
	C765.858215,232.514069 765.373657,239.672852 763.230896,245.931458 
	C762.396484,245.974945 760.319946,246.083160 758.284546,246.189240 
	C758.284546,249.973831 758.284546,253.379868 758.284546,256.827545 
	C760.638062,256.976471 762.711243,257.107635 765.000000,257.252472 
	C765.000000,264.897522 765.000000,272.198730 765.000000,280.499847 
M980.000000,129.501266 
	C980.000000,123.736130 980.000000,117.971001 980.000000,112.323204 
	C975.314514,112.323204 971.247498,112.323204 967.000000,112.323204 
	C967.000000,131.796204 967.351746,150.955322 966.879028,170.094070 
	C966.551697,183.345749 977.028320,189.416367 987.838623,186.284729 
	C987.838623,182.956635 987.838623,179.647522 987.838623,176.368698 
	C981.105408,175.210632 980.000732,173.940094 980.000244,167.499619 
	C979.999268,155.166626 980.000000,142.833633 980.000000,129.501266 
M1250.000000,128.501862 
	C1250.000000,142.657928 1249.920776,156.814590 1250.030151,170.969818 
	C1250.094604,179.323441 1253.772339,184.735321 1259.842041,185.964127 
	C1263.411255,186.686691 1267.087646,186.879959 1270.869995,187.329636 
	C1270.869995,183.075684 1270.869995,179.778412 1270.869995,176.508057 
	C1264.022339,175.127396 1263.003662,173.890869 1263.001221,167.035843 
	C1262.996948,155.044815 1263.000000,143.053787 1263.000000,131.062759 
	C1263.000000,124.796555 1263.000000,118.530342 1263.000000,112.293167 
	C1258.370483,112.293167 1254.303589,112.293167 1250.000000,112.293167 
	C1250.000000,117.556343 1250.000000,122.529846 1250.000000,128.501862 
M938.510376,183.004639 
	C943.401733,186.896088 948.919006,187.672287 954.845337,186.627319 
	C954.845337,182.986084 954.845337,179.681900 954.845337,176.407654 
	C948.223022,175.214554 947.017334,173.776001 947.007629,166.899887 
	C946.984070,150.239883 947.000000,133.579834 947.000000,116.919792 
	C947.000000,115.331345 947.000000,113.742905 947.000000,112.350121 
	C942.258667,112.350121 938.192505,112.350121 934.000183,112.350121 
	C934.000183,131.517136 933.753540,150.339920 934.181030,169.147400 
	C934.282410,173.606781 936.644470,178.014771 938.510376,183.004639 
M1091.977661,136.470627 
	C1084.752441,129.804123 1075.915894,129.106125 1068.643066,133.786667 
	C1063.494873,130.793335 1058.730225,132.524582 1054.318115,131.998367 
	C1054.318115,150.700729 1054.318115,168.757233 1054.318115,186.667023 
	C1058.707886,186.667023 1062.773682,186.667023 1067.000000,186.667023 
	C1067.000000,175.358948 1067.177490,164.379013 1066.920044,153.409286 
	C1066.803101,148.422638 1069.033203,144.816345 1073.117432,143.211777 
	C1077.225220,141.597977 1081.531616,142.584137 1083.878540,147.137573 
	C1086.692993,145.191147 1089.207153,143.426041 1091.749512,141.702759 
	C1093.701904,140.379517 1094.112305,138.860077 1091.977661,136.470627 
M1295.000000,146.499969 
	C1295.000000,135.074677 1295.000000,123.649391 1295.000000,112.311630 
	C1290.668823,112.311630 1286.934814,112.311630 1283.000000,112.311630 
	C1283.000000,132.089584 1282.999634,151.556686 1283.000122,171.023788 
	C1283.000366,183.370132 1290.524780,189.166565 1302.860840,186.313568 
	C1302.860840,183.009537 1302.860840,179.705490 1302.860840,176.428818 
	C1297.424194,175.413559 1295.126953,172.733765 1295.026245,166.985184 
	C1294.912598,160.491928 1295.000000,153.995178 1295.000000,146.499969 
M1005.000000,272.500000 
	C1005.000000,281.920746 1005.000000,291.341492 1005.000000,300.698242 
	C1009.649719,300.698242 1013.713806,300.698242 1017.710449,300.698242 
	C1017.710449,282.345428 1017.710449,264.295868 1017.710449,246.301483 
	C1013.350830,246.301483 1009.286743,246.301483 1005.000000,246.301483 
	C1005.000000,254.900772 1005.000000,263.200378 1005.000000,272.500000 
M720.580566,58.999310 
	C722.014709,59.076401 723.448853,59.153492 725.408813,59.258854 
	C724.942017,61.899368 725.264893,64.694954 724.022278,66.185760 
	C720.990295,69.823593 712.477905,67.822517 711.764709,62.968494 
	C710.931030,57.294552 711.481812,51.258682 712.507812,45.574009 
	C712.787537,44.024113 716.838745,42.751842 719.348572,42.171772 
	C720.671631,41.865959 723.706970,43.262417 723.743713,44.001110 
	C724.033691,49.821671 727.829529,47.609505 731.929626,47.949753 
	C730.879761,44.026859 730.996094,39.274296 728.964966,38.031590 
	C725.521484,35.924702 720.614868,35.005108 716.517273,35.434998 
	C709.167664,36.206070 704.600952,40.195332 703.572571,48.541092 
	C702.727661,55.398106 702.905029,61.902187 705.187988,68.176880 
	C707.833191,75.446861 721.364441,75.298340 727.734680,72.567902 
	C729.439514,71.837189 731.636169,69.915276 731.797485,68.353294 
	C732.316711,63.326382 731.990784,58.212177 731.990784,53.325809 
	C726.908691,53.325809 722.497620,53.325809 717.047363,53.325809 
	C718.115723,55.641483 718.888733,57.317123 720.580566,58.999310 
M835.608337,47.000000 
	C833.994141,46.790836 832.341919,46.735447 830.772156,46.346825 
	C822.433960,44.282616 817.005005,48.519875 817.000305,57.176697 
	C816.998901,59.671421 816.889343,62.172264 817.026123,64.659485 
	C817.253113,68.787170 821.111511,72.781708 825.217102,72.945442 
	C827.736023,73.045883 830.275696,72.623833 832.806091,72.435463 
	C831.733704,78.269600 828.117371,79.133667 820.810852,74.385185 
	C820.032532,76.807419 818.313904,79.305702 818.887024,81.051453 
	C819.712708,83.565887 829.178406,85.152260 832.669861,83.738319 
	C836.961914,82.000221 839.975159,79.054749 839.994751,74.006401 
	C840.017273,68.185471 839.975037,62.364182 840.021851,56.543545 
	C840.030945,55.417179 840.160645,53.366920 840.504333,53.307713 
	C845.178955,52.502453 842.217590,49.385090 843.065430,47.000000 
	C840.493652,47.000000 838.521912,47.000000 835.608337,47.000000 
M1006.466064,66.899940 
	C1001.234619,67.950523 1005.151733,71.460579 1004.134460,73.699387 
	C1008.700928,73.699387 1012.777588,73.699387 1017.038574,73.699387 
	C1016.620972,70.819511 1017.711792,68.481171 1014.539062,65.987778 
	C1012.722717,64.560425 1014.076538,59.101536 1013.999634,55.457794 
	C1013.885315,50.044899 1010.107605,45.981834 1004.903625,46.064716 
	C1002.633789,46.100868 1000.375061,46.841248 997.839844,47.312244 
	C997.839844,43.607986 997.839844,39.994671 997.839844,36.214909 
	C994.496948,36.214909 991.421570,36.214909 987.345276,36.214909 
	C993.005737,48.822693 992.335754,61.217602 987.340515,74.000000 
	C991.147278,74.000000 993.984863,74.275581 996.734375,73.902458 
	C998.546936,73.656487 1000.232666,72.476845 1001.975220,71.715256 
	C1001.044922,69.750130 1000.114624,67.784996 999.184326,65.819870 
	C998.658691,65.922874 998.133057,66.025879 997.607422,66.128883 
	C998.059692,62.755970 998.186035,59.288322 999.125244,56.056911 
	C999.499329,54.769871 1002.017273,52.938416 1002.947876,53.240219 
	C1004.550232,53.759926 1006.483521,55.583660 1006.821228,57.170170 
	C1007.430054,60.031155 1006.963806,63.120941 1006.466064,66.899940 
M923.000000,60.397655 
	C923.000000,54.630527 923.000000,48.863396 923.000000,43.148094 
	C925.231567,43.148094 926.865295,43.148094 928.691833,43.148094 
	C928.915833,44.463623 929.121765,45.672707 929.356079,47.048595 
	C931.397095,46.945736 933.124268,46.858692 934.657227,46.781437 
	C934.657227,42.926865 934.657227,39.533978 934.657227,36.329727 
	C924.257019,36.329727 914.201904,36.329727 904.323242,36.329727 
	C904.323242,40.076126 904.323242,43.487179 904.323242,46.839775 
	C906.612061,46.839775 908.572998,46.839775 910.934692,46.839775 
	C910.128174,41.866615 912.974548,42.779404 915.999756,43.355927 
	C915.999756,50.483799 916.083130,57.289494 915.908203,64.088554 
	C915.882507,65.086128 914.514099,65.992874 913.971863,67.047050 
	C913.218811,68.511177 912.088806,70.128967 912.225708,71.576385 
	C912.311523,72.483299 914.379028,73.784492 915.641663,73.888893 
	C919.374573,74.197556 923.149475,73.999229 926.835266,73.999229 
	C926.835266,71.388344 926.835266,69.429207 926.835266,67.289543 
	C925.524719,67.071030 924.320679,66.870262 923.000000,66.650047 
	C923.000000,64.662804 923.000000,63.012447 923.000000,60.397655 
M865.004333,53.269012 
	C865.923218,57.826000 869.256775,55.374447 871.739624,56.046871 
	C871.946655,54.487175 872.092468,53.389095 872.245361,52.237572 
	C876.200134,51.598183 879.219299,52.070183 879.486816,56.549694 
	C875.793762,57.034721 871.992859,57.173279 868.391418,58.092991 
	C863.227661,59.411682 863.892212,63.835407 864.001099,67.798096 
	C864.095825,71.248497 866.089783,73.659058 869.225220,73.856308 
	C875.769287,74.268005 882.357239,73.980934 889.168945,73.980934 
	C888.958496,71.348358 889.308044,67.941643 888.561646,67.681648 
	C884.565979,66.289948 886.303345,63.232719 886.043640,60.838135 
	C885.829651,58.864758 885.778503,56.819794 886.043152,54.858932 
	C886.732117,49.755074 884.739563,47.460899 878.941040,46.201733 
	C875.916809,45.545010 872.517761,46.749790 869.277893,46.914288 
	C865.616455,47.100189 864.510803,49.076321 865.004333,53.269012 
M748.046814,67.562088 
	C746.857422,66.430382 745.668091,65.298683 744.478699,64.166977 
	C744.752441,63.756886 745.026184,63.346794 745.299988,62.936703 
	C750.409119,62.936703 755.518250,62.936703 761.000000,62.936703 
	C761.000000,61.294323 760.997192,60.006710 761.000427,58.719109 
	C761.018616,51.533558 757.627075,46.973358 751.549622,46.014339 
	C744.593811,44.916721 739.101379,48.505226 737.230042,55.370094 
	C735.359253,62.232796 738.250244,70.560860 743.392456,73.121941 
	C748.901855,75.865898 756.964966,73.982529 760.526306,69.538666 
	C759.335083,67.930557 758.191895,66.387268 757.414429,65.337662 
	C754.228760,66.300980 751.495239,67.127579 748.046814,67.562088 
M952.066162,72.996567 
	C953.849731,71.775749 955.633301,70.554924 957.706055,69.136192 
	C955.765198,67.305779 954.465820,66.080322 953.239319,64.923561 
	C944.523987,69.374939 942.298279,69.011192 940.715332,62.819668 
	C946.059814,62.819668 951.343628,62.819668 956.998657,62.819668 
	C956.998657,60.470306 957.196960,58.325054 956.958801,56.229412 
	C956.399902,51.312099 953.938171,47.852535 948.960144,46.427769 
	C944.421631,45.128819 937.855957,46.820606 935.465637,50.031513 
	C932.242126,54.361553 932.127441,64.852356 935.251343,69.639412 
	C938.071838,73.961693 943.890930,75.257545 952.066162,72.996567 
M789.999878,57.795189 
	C789.684753,51.805847 786.791809,47.417934 780.941956,46.168331 
	C776.013489,45.115555 770.489075,45.828690 768.049133,50.821087 
	C766.308838,54.381935 766.270630,58.924950 766.081726,63.057510 
	C765.816711,68.852379 769.213196,73.360306 773.673462,73.992462 
	C782.302551,75.215485 786.974976,72.980362 788.942200,66.326981 
	C789.663879,63.886078 789.668335,61.233131 789.999878,57.795189 
M962.000000,62.340370 
	C961.468018,66.806465 962.610779,70.836075 966.795288,72.763237 
	C969.320190,73.926079 972.509399,73.902565 975.407654,73.949890 
	C983.903503,74.088593 985.218506,72.357727 983.330139,64.167526 
	C981.354553,64.167526 979.391479,64.167526 976.928040,64.167526 
	C978.111633,68.969658 974.933228,68.775131 972.475708,67.558632 
	C970.869690,66.763641 969.206238,64.220558 969.205688,62.460033 
	C969.204834,59.414738 970.177856,56.236210 971.432983,53.421532 
	C971.728821,52.758266 976.146484,52.843410 976.337830,53.393990 
	C977.998962,58.174042 981.251526,55.346989 984.924316,55.856510 
	C983.936951,52.654354 983.938232,49.175087 982.284363,47.972870 
	C977.983765,44.846775 969.708252,45.173328 965.353577,48.867039 
	C961.181519,52.405777 962.143982,56.981579 962.000000,62.340370 
M806.994141,68.731964 
	C805.998230,67.567688 804.405579,66.539917 804.102966,65.217049 
	C802.088501,56.410130 804.408386,53.371429 813.081665,52.914623 
	C813.354004,52.900276 813.609741,52.569740 813.973572,52.316879 
	C813.544495,49.795380 815.652588,45.721478 810.381836,46.044033 
	C805.002075,46.373253 799.643250,47.044289 794.008667,47.591572 
	C795.000854,51.831318 796.826843,56.113346 796.770813,60.370598 
	C796.713135,64.749062 794.819214,69.103333 793.654480,73.765717 
	C798.543701,73.765717 802.616577,73.765717 806.999512,73.765717 
	C806.999512,72.249115 806.999512,70.951355 806.994141,68.731964 
M857.000000,63.266792 
	C857.000000,57.980774 857.000000,52.694756 857.000000,47.209503 
	C853.519714,47.209503 850.445801,47.209503 846.950500,47.209503 
	C848.010864,51.747540 849.832825,56.015728 849.771667,60.256756 
	C849.708130,64.662407 847.823364,69.041801 846.647705,73.785095 
	C851.479126,73.785095 855.556885,73.785095 861.119995,73.785095 
	C859.538757,70.110840 858.269531,67.161507 857.000000,63.266792 
M1005.000000,234.372238 
	C1004.594971,237.023788 1005.393799,238.318283 1008.405762,238.058578 
	C1011.485535,237.793015 1014.606018,237.999786 1017.737366,237.999786 
	C1017.737366,233.417099 1017.737366,229.357239 1017.737366,225.265991 
	C1013.409363,225.265991 1009.349182,225.265991 1005.000000,225.265991 
	C1005.000000,228.157242 1005.000000,230.786057 1005.000000,234.372238 
M851.652405,42.992546 
	C853.400146,42.992546 855.147949,42.992546 856.647095,42.992546 
	C856.647095,40.228161 856.647095,38.155983 856.647095,36.359818 
	C854.214050,36.359818 852.142151,36.359818 849.633057,36.359818 
	C850.046692,38.826260 850.390381,40.875317 851.652405,42.992546 
z"/>
<path fill="#B3A369" opacity="1.000000" stroke="none" 
	d="
M188.531357,1.000000 
	C193.296722,1.659952 197.573944,2.513301 201.893311,2.948498 
	C230.112549,5.791720 256.313171,14.751079 280.871521,28.767569 
	C280.970703,28.824181 281.174225,28.697968 281.899963,28.506531 
	C281.899963,20.641415 281.899963,12.604949 281.899963,4.290945 
	C300.391907,4.290945 318.315857,4.290945 336.620697,4.290945 
	C336.620697,34.999710 336.620697,65.707603 336.620697,96.759537 
	C334.936005,96.841919 333.320099,96.987221 331.704010,96.989510 
	C318.537964,97.008118 305.357574,96.633965 292.211761,97.149666 
	C285.320099,97.420021 279.956055,95.577065 274.614136,91.261520 
	C256.214874,76.397385 234.910843,67.383064 211.825073,63.211723 
	C180.749832,57.596764 151.554321,63.232185 125.188240,81.005211 
	C104.021400,95.273506 90.536133,115.130585 86.218880,140.283157 
	C81.249878,169.232864 90.922241,192.990005 113.885727,211.537720 
	C132.398254,226.490372 153.843719,233.783005 176.977066,236.963058 
	C184.310455,237.971176 191.763687,239.144089 199.107162,238.853546 
	C224.107330,237.864410 247.594788,231.589081 267.136292,215.148361 
	C280.153625,204.196548 289.434845,190.538788 292.467163,173.135071 
	C286.181335,173.135071 280.036469,173.135071 273.313965,173.135071 
	C271.881500,180.422104 270.255951,187.725037 269.098175,195.101379 
	C268.688507,197.711288 268.074677,199.037186 265.244202,199.025070 
	C250.758530,198.962967 236.272461,198.996353 221.394028,198.996353 
	C221.394028,170.030365 221.394028,141.322235 221.394028,112.306168 
	C332.360260,112.306168 443.280762,112.306168 554.600769,112.306168 
	C554.600769,140.959030 554.600769,169.667236 554.600769,198.688629 
	C539.317566,198.688629 524.061218,198.688629 508.061890,198.688629 
	C506.732391,191.544022 505.180817,184.225403 504.096375,176.838226 
	C503.704468,174.168671 502.960571,172.968170 500.182678,172.974991 
	C479.369843,173.026031 458.556824,173.002777 437.372559,173.002777 
	C437.372559,212.680099 437.372559,252.054291 437.372559,291.867920 
	C447.066406,291.867920 456.663574,291.867920 467.000000,291.867920 
	C467.000000,310.218445 467.000000,328.140564 467.000000,346.531342 
	C422.645782,347.000000 378.291534,347.000000 333.468658,346.531342 
	C333.000000,328.141968 333.000000,310.221283 333.000000,291.873138 
	C343.331573,291.873138 352.928070,291.873138 362.634918,291.873138 
	C362.634918,252.063492 362.634918,212.692184 362.634918,173.276688 
	C356.342255,173.276688 350.418335,173.276688 343.889099,173.276688 
	C343.889099,207.590622 343.889099,241.633804 343.889099,275.733765 
	C324.352661,275.733765 305.427612,275.733765 286.229858,275.733765 
	C286.067291,272.435181 285.916870,269.382568 285.776581,266.536255 
	C273.666260,270.923920 261.959839,275.581604 249.988907,279.412811 
	C227.373672,286.650757 203.957413,290.292938 180.380966,291.720673 
	C166.261337,292.575684 151.912521,291.290527 137.778137,289.863708 
	C117.674194,287.834259 98.652145,281.340698 80.759483,272.171234 
	C62.052486,262.584503 45.160866,250.473251 31.435797,234.107513 
	C18.323765,218.472733 8.707918,201.263992 3.906828,181.388657 
	C3.291269,178.840408 1.985844,176.458801 1.000000,174.000000 
	C1.000000,160.645767 1.000000,147.291550 1.355601,133.325592 
	C2.100111,132.192200 2.742396,131.714462 2.841604,131.142548 
	C7.945304,101.720009 22.817287,77.502113 43.204510,56.420742 
	C55.039742,44.182549 68.618607,34.126785 83.498497,25.657534 
	C104.468529,13.721924 126.755165,6.141114 150.617599,2.981001 
	C155.087448,2.389057 159.539658,1.663758 164.000000,0.999999 
	C172.020905,1.000000 180.041809,1.000000 188.531357,1.000000 
z"/>
<path fill="#FFFFFF" opacity="1.000000" stroke="none" 
	d="
M1.000000,174.468658 
	C1.985844,176.458801 3.291269,178.840408 3.906828,181.388657 
	C8.707918,201.263992 18.323765,218.472733 31.435797,234.107513 
	C45.160866,250.473251 62.052486,262.584503 80.759483,272.171234 
	C98.652145,281.340698 117.674194,287.834259 137.778137,289.863708 
	C151.912521,291.290527 166.261337,292.575684 180.380966,291.720673 
	C203.957413,290.292938 227.373672,286.650757 249.988907,279.412811 
	C261.959839,275.581604 273.666260,270.923920 285.776581,266.536255 
	C285.916870,269.382568 286.067291,272.435181 286.229858,275.733765 
	C305.427612,275.733765 324.352661,275.733765 343.889099,275.733765 
	C343.889099,241.633804 343.889099,207.590622 343.889099,173.276688 
	C350.418335,173.276688 356.342255,173.276688 362.634918,173.276688 
	C362.634918,212.692184 362.634918,252.063492 362.634918,291.873138 
	C352.928070,291.873138 343.331573,291.873138 333.000000,291.873138 
	C333.000000,310.221283 333.000000,328.141968 333.000000,346.531342 
	C222.429230,347.000000 111.858475,347.000000 1.000000,347.000000 
	C1.000000,289.646088 1.000000,232.291702 1.000000,174.468658 
z"/>
<path fill="#FFFFFF" opacity="1.000000" stroke="none" 
	d="
M163.531342,0.999999 
	C159.539658,1.663758 155.087448,2.389057 150.617599,2.981001 
	C126.755165,6.141114 104.468529,13.721924 83.498497,25.657534 
	C68.618607,34.126785 55.039742,44.182549 43.204510,56.420742 
	C22.817287,77.502113 7.945304,101.720009 2.841604,131.142548 
	C2.742396,131.714462 2.100111,132.192200 1.355601,132.856934 
	C1.000000,89.065338 1.000000,45.130672 1.000000,1.000000 
	C55.020737,1.000000 109.041710,1.000000 163.531342,0.999999 
z"/>
<path fill="#B3A369" opacity="1.000000" stroke="none" 
	d="
M627.428467,347.000000 
	C627.000000,232.562042 627.000000,118.124069 627.000000,3.353184 
	C628.729126,3.353184 630.102417,3.353184 631.942444,3.353184 
	C632.295227,117.671478 632.647644,231.867081 633.000000,346.531342 
	C631.285645,347.000000 629.571289,347.000000 627.428467,347.000000 
z"/>
<path fill="#003057" opacity="1.000000" stroke="none" 
	d="
M1471.000000,162.541931 
	C1460.056396,163.000000 1449.112793,163.000000 1437.816772,163.000000 
	C1439.212524,168.624771 1439.384033,174.903641 1445.413208,176.583633 
	C1450.780762,178.079330 1456.801880,178.094360 1460.374146,171.551224 
	C1463.880005,173.965759 1467.019897,176.128265 1470.316162,178.398422 
	C1466.144653,185.028137 1460.616455,188.059296 1453.072510,188.073593 
	C1445.234253,188.088440 1437.621948,188.082458 1431.911743,181.435349 
	C1428.193115,177.106461 1425.893311,172.231598 1426.037354,166.487457 
	C1426.202026,159.921936 1426.203125,153.303452 1427.071533,146.814529 
	C1428.914429,133.042465 1442.474731,129.632843 1452.170288,131.236328 
	C1464.344116,133.249649 1469.323364,139.493378 1470.619019,151.851929 
	C1471.000000,155.361282 1471.000000,158.722580 1471.000000,162.541931 
M1443.696533,153.000000 
	C1448.411377,153.000000 1453.126099,153.000000 1457.924072,153.000000 
	C1456.644775,145.486801 1452.341309,141.245087 1447.250488,142.019852 
	C1441.970581,142.823395 1439.057373,146.755096 1439.367065,153.000000 
	C1440.481201,153.000000 1441.619263,153.000000 1443.696533,153.000000 
z"/>
<path fill="#B3A369" opacity="1.000000" stroke="none" 
	d="
M486.399994,347.000000 
	C482.307770,344.890717 478.614868,342.739349 478.024048,337.946198 
	C477.328766,332.305084 480.615845,326.993652 485.273499,326.050293 
	C491.556244,324.777771 496.603912,327.762939 498.035309,333.597595 
	C499.626221,340.082672 497.144501,344.185211 490.158905,346.677673 
	C488.933319,347.000000 487.866669,347.000000 486.399994,347.000000 
M490.700012,343.711334 
	C491.257935,343.361938 491.815857,343.012543 492.143311,342.807465 
	C490.756897,341.193726 489.376282,339.586700 488.075531,338.072662 
	C486.897339,339.879120 485.922852,341.373260 484.661713,343.306915 
	C486.512085,343.525085 488.248962,343.729889 490.700012,343.711334 
z"/>
<path fill="#003057" opacity="1.000000" stroke="none" 
	d="
M875.881348,255.613297 
	C873.841736,257.625427 872.044189,259.351532 870.853516,260.494812 
	C873.988770,264.011536 878.023132,266.863831 879.562012,270.713623 
	C881.241211,274.914581 881.344238,280.123383 880.818054,284.742889 
	C879.949158,292.370026 872.138855,299.215149 862.710083,299.825134 
	C851.046997,300.579681 839.297974,300.005707 827.289062,300.005707 
	C827.289062,275.687988 827.289062,250.630035 827.289062,224.526901 
	C839.618530,225.056458 852.090454,224.596558 864.232361,226.381409 
	C877.538452,228.337372 882.967163,242.947601 875.881348,255.613297 
M860.357239,268.851013 
	C854.009033,268.063995 847.660767,267.277008 841.316895,266.490540 
	C841.316895,274.707855 841.316895,281.760406 841.316895,288.999054 
	C846.598755,288.999054 851.572021,289.164886 856.529602,288.957092 
	C862.713257,288.697876 867.306824,284.983673 867.829224,279.085999 
	C868.242065,274.424316 865.994751,270.637512 860.357239,268.851013 
M860.943726,253.568771 
	C865.143799,251.391586 865.439697,247.556686 864.946289,243.579620 
	C864.509277,240.056870 862.165405,238.218109 858.702759,237.930847 
	C852.912720,237.450516 847.114197,237.073135 841.257874,236.647964 
	C841.257874,243.600723 841.257874,249.646194 841.257874,256.856995 
	C847.853210,255.853302 854.039612,254.911850 860.943726,253.568771 
z"/>
<path fill="#003057" opacity="1.000000" stroke="none" 
	d="
M1379.473633,133.194946 
	C1386.266113,130.317322 1392.651123,130.417282 1399.181030,132.901871 
	C1400.424072,133.374832 1402.229492,132.119995 1403.791992,132.054291 
	C1407.278442,131.907669 1410.775269,132.008484 1414.754517,132.008484 
	C1414.838135,133.475693 1414.988037,134.894653 1414.989502,136.313782 
	C1415.005981,152.619232 1415.208618,168.928223 1414.933838,185.229050 
	C1414.714600,198.232849 1409.873535,207.003830 1394.747925,208.130905 
	C1387.469727,208.673233 1380.636597,208.681580 1374.546265,204.131653 
	C1372.674072,202.733047 1370.924805,201.169968 1368.682495,199.322113 
	C1372.631104,196.339294 1375.456665,194.204712 1378.418579,191.967239 
	C1383.364990,197.821182 1389.749634,199.485550 1396.368652,196.629059 
	C1400.438477,194.872696 1403.113647,190.818726 1402.078491,186.746246 
	C1395.844238,187.140076 1389.679199,188.519241 1383.840942,187.665298 
	C1375.185669,186.399277 1369.496094,180.135269 1368.526489,171.706070 
	C1367.559326,163.298447 1368.214111,154.593170 1369.114380,146.120026 
	C1369.734253,140.285980 1373.660767,135.964340 1379.473633,133.194946 
M1395.877808,143.360886 
	C1386.768433,140.871185 1380.895142,144.478607 1380.135498,153.736481 
	C1379.739380,158.564056 1380.598633,163.505386 1381.009155,168.385376 
	C1381.417969,173.246140 1384.302368,176.162735 1388.935669,176.933411 
	C1394.524170,177.862976 1399.158691,176.097687 1400.285156,170.882919 
	C1401.688110,164.387146 1401.404785,157.408829 1400.963745,150.697113 
	C1400.809204,148.346893 1398.029175,146.169266 1395.877808,143.360886 
z"/>
<path fill="#003057" opacity="1.000000" stroke="none" 
	d="
M721.181396,127.520691 
	C719.255371,134.249146 720.474182,137.485764 726.658813,140.107056 
	C731.506348,142.161713 736.633240,143.668777 741.753845,144.947464 
	C758.943909,149.240051 762.501648,163.890305 756.631775,176.645096 
	C753.924866,182.527008 748.923584,186.234009 742.295593,187.220581 
	C729.110840,189.183167 716.486206,188.974182 706.533142,178.101501 
	C704.723755,176.124969 704.112671,174.896378 707.045349,173.341797 
	C709.870483,171.844254 712.373840,169.739624 715.385010,167.647018 
	C720.200684,174.704056 727.031738,176.716568 735.145508,176.070892 
	C740.638245,175.633804 744.062073,173.611633 744.997498,169.265076 
	C746.134033,163.983780 744.316467,160.209198 738.749756,158.039658 
	C732.049866,155.428497 725.095703,153.478012 718.334900,151.013000 
	C704.235413,145.872314 702.619263,122.909523 714.802734,114.864899 
	C717.547058,113.052879 720.942627,111.310616 724.095276,111.203148 
	C734.116455,110.861557 744.618225,109.226166 753.030579,117.031685 
	C754.897522,118.763924 756.462280,120.821808 758.584290,123.197876 
	C754.893188,125.994781 751.468445,128.589890 748.029358,131.195862 
	C740.913574,121.170425 729.090881,119.485191 721.181396,127.520691 
z"/>
<path fill="#003057" opacity="1.000000" stroke="none" 
	d="
M1135.205078,119.298050 
	C1144.475342,108.610909 1156.247803,109.352966 1167.601196,112.498566 
	C1178.457520,115.506439 1182.930664,125.390816 1183.838745,135.797119 
	C1182.526733,135.864990 1181.216187,135.876556 1179.918213,136.009827 
	C1174.671387,136.548569 1170.648315,136.344437 1168.592773,129.684586 
	C1166.773804,123.791603 1159.603394,121.466171 1152.385498,123.092056 
	C1147.040771,124.295959 1144.192993,128.093735 1142.929565,133.499573 
	C1140.313477,144.693359 1140.125000,155.818481 1143.426514,166.829941 
	C1144.897339,171.735809 1148.130615,175.284225 1153.652222,176.004990 
	C1160.533081,176.903168 1166.459229,175.091919 1168.988037,168.293457 
	C1170.781128,163.472931 1173.520508,162.344604 1178.023315,162.956680 
	C1179.933105,163.216293 1181.907593,163.000000 1184.078857,163.000000 
	C1182.035400,174.899612 1177.698242,184.681992 1165.157593,187.226501 
	C1148.549805,190.596237 1132.360352,186.340927 1129.071777,165.504898 
	C1127.146973,153.309814 1126.642090,140.964203 1130.087158,128.904556 
	C1131.031982,125.597443 1133.297363,122.667610 1135.205078,119.298050 
z"/>
<path fill="#003057" opacity="1.000000" stroke="none" 
	d="
M821.000000,123.020828 
	C821.000000,119.214195 821.000000,115.904396 821.000000,112.298386 
	C824.960938,112.298386 828.695312,112.298386 832.999390,112.298386 
	C832.999390,119.762108 832.999390,127.278595 832.999390,135.680832 
	C839.430664,130.864334 845.610474,130.130402 852.510132,131.892807 
	C860.719910,133.989883 865.122559,138.771698 865.722412,146.751877 
	C866.715088,159.959274 865.992249,173.295624 865.992249,186.787201 
	C861.988525,186.787201 858.370300,186.787201 854.000000,186.787201 
	C854.000000,177.360703 854.065857,167.786758 853.960205,158.214737 
	C853.928162,155.306564 853.584290,152.376251 853.098083,149.504349 
	C852.252869,144.511337 848.581604,142.594864 844.085205,142.551224 
	C839.272095,142.504501 834.947144,145.977585 834.070740,150.244308 
	C833.452148,153.256104 833.091675,156.368088 833.046692,159.441635 
	C832.915344,168.416763 833.000000,177.395035 833.000000,186.685486 
	C829.070190,186.685486 825.335815,186.685486 821.000000,186.685486 
	C821.000000,165.689728 821.000000,144.603699 821.000000,123.020828 
z"/>
<path fill="#003057" opacity="1.000000" stroke="none" 
	d="
M998.000977,170.767670 
	C996.430786,161.053192 995.975037,151.864075 999.591858,142.856018 
	C1003.897522,132.131927 1015.512451,129.651779 1025.017090,131.547318 
	C1037.509399,134.038666 1040.943848,141.003784 1041.967651,153.934952 
	C1042.188965,156.731705 1042.000000,159.560959 1042.000000,162.801483 
	C1031.407104,162.801483 1020.999695,162.801483 1010.677063,162.801483 
	C1009.511108,169.121994 1011.998962,174.312057 1016.908325,176.393265 
	C1022.018494,178.559631 1028.507324,176.653076 1031.866577,171.616150 
	C1035.011353,173.829453 1038.144409,176.034515 1041.433350,178.349380 
	C1035.832153,189.371490 1025.998047,188.673767 1016.864014,187.796799 
	C1008.328552,186.977325 1001.062012,183.498123 998.000977,170.767670 
M1011.882446,146.667419 
	C1011.161560,148.568695 1010.440613,150.469971 1009.578186,152.744476 
	C1016.413635,152.744476 1022.631958,152.744476 1029.183228,152.744476 
	C1028.597290,148.501633 1027.929932,144.825684 1023.617920,142.980621 
	C1018.969849,140.991776 1015.495972,142.717896 1011.882446,146.667419 
z"/>
<path fill="#003057" opacity="1.000000" stroke="none" 
	d="
M1349.249756,172.751526 
	C1352.041504,174.749298 1354.567139,176.488770 1357.294678,178.367203 
	C1353.660156,185.158875 1348.235229,188.073380 1341.024292,188.000763 
	C1335.171143,187.941818 1329.279419,188.513260 1323.831543,185.373169 
	C1317.371094,181.649353 1313.938599,175.644623 1313.252319,168.813828 
	C1312.536377,161.690262 1313.137573,154.319916 1314.051758,147.171112 
	C1315.881470,132.861893 1330.707886,129.216064 1340.792358,131.430634 
	C1352.021362,133.896545 1357.569336,141.711090 1357.986206,154.106201 
	C1358.080078,156.899368 1357.999878,159.698410 1357.999878,162.870087 
	C1346.946045,162.870087 1336.196899,162.870087 1324.093384,162.870087 
	C1326.221313,167.437271 1327.214966,171.911163 1329.911377,174.789825 
	C1333.634766,178.764725 1341.197876,177.788757 1345.451538,174.102585 
	C1346.389526,173.289871 1347.793945,173.015503 1349.249756,172.751526 
M1337.857422,142.339005 
	C1330.569336,141.605347 1326.106079,145.585403 1326.283203,152.717194 
	C1332.470703,152.717194 1338.655762,152.717194 1345.134277,152.717194 
	C1344.035522,148.360840 1343.604126,144.040543 1337.857422,142.339005 
z"/>
<path fill="#003057" opacity="1.000000" stroke="none" 
	d="
M877.023193,163.666351 
	C877.399597,157.641037 877.083313,151.908585 878.329651,146.538803 
	C881.540161,132.706848 894.625916,129.702881 904.932861,131.435394 
	C917.696838,133.580933 922.433960,143.112839 922.016052,154.044891 
	C921.909180,156.841537 922.000000,159.645737 922.000000,162.847443 
	C911.336365,162.847443 900.935913,162.847443 890.603394,162.847443 
	C889.707947,168.661087 891.757812,174.155441 896.087585,175.934280 
	C902.393738,178.525101 908.282715,177.669342 912.687988,171.823135 
	C915.807617,174.042542 918.691956,176.094559 921.808228,178.311600 
	C919.556030,183.398361 915.485413,186.294037 910.194702,187.259735 
	C896.413635,189.775085 883.548279,187.858994 878.691101,172.165298 
	C877.885986,169.564117 877.579407,166.808624 877.023193,163.666351 
M908.970459,148.879272 
	C907.228638,144.565598 904.068054,141.929550 899.393555,142.093216 
	C894.438538,142.266724 891.922058,145.527451 890.331238,152.686844 
	C896.820251,152.686844 903.318176,152.686844 910.133545,152.686844 
	C909.663635,151.439209 909.334656,150.565765 908.970459,148.879272 
z"/>
<path fill="#003057" opacity="1.000000" stroke="none" 
	d="
M1129.570801,297.789795 
	C1116.856201,305.802734 1093.919922,302.852966 1090.968262,286.103027 
	C1089.352417,276.933258 1089.736572,266.961945 1091.491821,257.786896 
	C1092.940552,250.214111 1099.731812,244.851227 1109.488281,244.974991 
	C1116.382935,245.062454 1123.747559,244.272079 1128.206177,250.915833 
	C1130.803589,254.786118 1132.744385,259.373260 1133.808228,263.912598 
	C1134.730103,267.845825 1134.000000,272.166260 1134.000000,276.845703 
	C1123.326660,276.845703 1112.777588,276.845703 1101.683594,276.845703 
	C1102.860107,281.937317 1103.059692,286.812042 1107.828735,289.290527 
	C1113.086426,292.022919 1118.019897,291.710968 1122.478516,287.230682 
	C1123.217651,286.488007 1125.499390,286.500916 1126.610840,287.065216 
	C1129.177734,288.368439 1131.463867,290.224457 1134.142090,292.045319 
	C1132.552979,294.129974 1131.227173,295.869232 1129.570801,297.789795 
M1106.751221,267.000000 
	C1111.779541,267.000000 1116.807739,267.000000 1122.007324,267.000000 
	C1118.821655,256.557617 1117.833618,255.629074 1110.779053,256.000183 
	C1105.999512,256.251587 1103.837769,259.021606 1102.341675,267.000000 
	C1103.533813,267.000000 1104.679688,267.000000 1106.751221,267.000000 
z"/>
<path fill="#003057" opacity="1.000000" stroke="none" 
	d="
M1239.000000,155.147949 
	C1238.660767,161.361099 1238.917480,167.208969 1237.839722,172.799622 
	C1236.300781,180.783539 1230.737671,186.042847 1222.930420,187.383865 
	C1211.478394,189.350922 1199.090698,189.272781 1194.173218,174.693192 
	C1190.100952,162.620071 1189.882446,149.979538 1197.207397,138.504990 
	C1200.661987,133.093216 1213.034668,129.518463 1220.489258,131.176193 
	C1234.303345,134.248154 1238.823486,142.910263 1239.000000,155.147949 
M1220.284790,176.198990 
	C1221.537964,175.019485 1223.184937,174.057922 1223.978638,172.624069 
	C1228.180054,165.036087 1227.801025,156.944214 1225.377075,149.041046 
	C1224.064331,144.760788 1220.354370,142.067780 1215.728394,142.107452 
	C1211.673706,142.142227 1207.627808,143.896057 1206.606689,148.078812 
	C1205.423584,152.923904 1205.324951,158.062866 1205.034058,163.090347 
	C1204.510498,172.136551 1208.124878,178.848236 1220.284790,176.198990 
z"/>
<path fill="#003057" opacity="1.000000" stroke="none" 
	d="
M704.000000,273.001312 
	C704.360474,264.351868 704.433594,255.809479 711.543274,250.252014 
	C714.904358,247.624680 719.468323,245.882080 723.717163,245.225357 
	C728.120422,244.544724 732.966309,245.026321 737.321289,246.150742 
	C743.177368,247.662704 748.269653,251.395142 749.073608,257.719543 
	C750.245178,266.935303 751.984009,276.601471 750.393738,285.525421 
	C747.904785,299.492004 733.975525,304.829285 719.155151,300.621979 
	C711.371887,298.412415 705.719788,291.041718 704.989258,282.702454 
	C704.719360,279.620850 704.333191,276.549438 704.000000,273.001312 
M718.293396,284.806396 
	C720.514099,289.201477 724.214050,291.309845 728.994568,290.929993 
	C733.653381,290.559814 736.995850,287.501831 737.742126,283.197357 
	C738.739563,277.443909 739.335876,271.385376 738.641418,265.634521 
	C737.797546,258.647217 733.371460,255.706650 726.861023,256.000153 
	C721.916077,256.223083 717.512817,260.299255 717.161011,266.383881 
	C716.823120,272.226715 717.687561,278.139069 718.293396,284.806396 
z"/>
<path fill="#003057" opacity="1.000000" stroke="none" 
	d="
M892.000000,251.118698 
	C892.000000,249.190338 892.000000,247.749283 892.000000,246.157684 
	C896.460754,246.157684 900.408691,246.157684 905.000000,246.157684 
	C905.000000,256.756866 904.948669,267.341370 905.044067,277.924561 
	C905.062683,279.996002 905.435303,282.125031 906.018250,284.118195 
	C907.307373,288.525787 911.713135,291.514191 915.756165,290.979401 
	C920.483826,290.354004 924.939575,285.733337 924.972900,281.087799 
	C925.055237,269.612549 924.999939,258.136322 924.999939,246.330597 
	C929.231384,246.330597 933.297485,246.330597 937.684631,246.330597 
	C937.684631,264.250061 937.684631,282.307831 937.684631,301.026611 
	C933.722046,300.380096 929.357727,302.361572 924.445801,299.013550 
	C919.555359,302.199860 912.987183,302.905304 905.936523,301.056915 
	C899.094910,299.263275 893.369507,293.311340 893.052185,286.320862 
	C892.527283,274.757141 892.333435,263.178406 892.000000,251.118698 
z"/>
<path fill="#003057" opacity="1.000000" stroke="none" 
	d="
M1074.006592,251.046356 
	C1075.368774,254.322906 1077.729980,257.186920 1077.818970,260.119873 
	C1078.226685,273.555054 1077.998291,287.009521 1077.998291,300.727600 
	C1073.989746,300.727600 1070.259033,300.727600 1066.000000,300.727600 
	C1066.000000,289.781372 1066.023804,278.858612 1065.990967,267.936005 
	C1065.971924,261.626221 1063.746460,258.031464 1059.086792,256.558685 
	C1052.626587,254.516861 1046.638184,258.111206 1046.080811,264.937744 
	C1045.397949,273.303864 1045.293457,281.719055 1045.018799,290.115662 
	C1044.905640,293.573029 1045.000000,297.037170 1045.000000,300.746948 
	C1040.949219,300.746948 1037.219482,300.746948 1033.242676,300.746948 
	C1033.242676,282.611938 1033.242676,264.565216 1033.242676,246.529129 
	C1041.629517,245.201630 1043.970459,245.603897 1045.166748,248.554077 
	C1052.732300,243.132797 1068.144653,243.429703 1074.006592,251.046356 
z"/>
<path fill="#003057" opacity="1.000000" stroke="none" 
	d="
M1204.551270,299.832764 
	C1203.466431,299.311584 1202.687012,299.020477 1202.054688,298.536957 
	C1193.190674,291.759186 1195.686401,291.873138 1203.682617,286.905670 
	C1204.585083,286.345001 1206.658081,286.446167 1207.439575,287.115112 
	C1211.955322,290.980194 1217.065430,291.748596 1222.377563,289.843811 
	C1224.232910,289.178528 1226.752563,286.725952 1226.666138,285.221832 
	C1226.562256,283.411499 1224.318726,280.831360 1222.448486,280.184967 
	C1217.168213,278.360107 1211.378540,277.930817 1206.203491,275.897919 
	C1197.061401,272.306580 1196.317261,264.957977 1197.109131,257.305725 
	C1197.704956,251.548584 1205.177856,245.284775 1211.966553,245.126465 
	C1219.359375,244.954056 1226.992432,243.691193 1233.729126,248.872559 
	C1239.369873,253.211044 1239.594238,254.098663 1233.516357,258.135773 
	C1232.171021,259.029419 1230.853027,259.964355 1229.473267,260.914154 
	C1225.768311,256.686737 1220.845581,255.274506 1215.701904,256.227081 
	C1213.570801,256.621765 1211.072266,259.101929 1210.195435,261.232422 
	C1208.919922,264.331024 1211.976318,265.361084 1214.394897,265.956146 
	C1218.920166,267.069458 1223.505249,267.936432 1228.047974,268.981873 
	C1237.176514,271.082611 1239.934937,278.183075 1239.844727,285.736206 
	C1239.743530,294.209381 1233.152954,299.751465 1225.640381,301.203003 
	C1218.440063,302.594238 1211.753174,301.604828 1204.551270,299.832764 
z"/>
<path fill="#003057" opacity="1.000000" stroke="none" 
	d="
M1184.819580,294.505188 
	C1177.033691,305.540436 1152.629517,302.839874 1146.176636,295.782990 
	C1144.020996,293.425598 1143.113403,292.264404 1146.372437,289.870605 
	C1149.979248,287.221436 1152.567261,284.990021 1157.220581,288.430603 
	C1160.629761,290.951202 1165.290649,292.254242 1169.603271,289.917542 
	C1171.657349,288.804474 1173.213867,286.773254 1174.995850,285.157959 
	C1173.440796,283.481049 1172.178345,280.958038 1170.271362,280.298157 
	C1165.898071,278.784912 1161.116943,278.489044 1156.669189,277.144104 
	C1146.798828,274.159424 1143.970947,269.099762 1145.000977,257.233917 
	C1145.503906,251.441788 1152.332397,245.474426 1159.961060,245.116699 
	C1166.273804,244.820663 1172.915283,243.748672 1178.748779,247.383896 
	C1181.502441,249.099960 1183.896362,251.393372 1187.099976,253.939026 
	C1183.173828,256.740662 1180.065308,258.958740 1176.807251,261.283600 
	C1172.685059,256.372833 1167.672852,254.593857 1161.842773,256.780090 
	C1160.003174,257.469940 1158.639038,259.428101 1157.057251,260.805725 
	C1158.573730,262.537720 1159.776855,265.134460 1161.671997,265.821045 
	C1165.572021,267.233917 1169.860962,267.540405 1173.956177,268.453186 
	C1187.983276,271.579651 1189.574951,283.040466 1184.819580,294.505188 
z"/>
<path fill="#003057" opacity="1.000000" stroke="none" 
	d="
M955.038025,248.995071 
	C965.390442,241.132751 982.865295,243.633148 991.197937,254.361496 
	C988.127197,256.633331 985.061096,258.901733 981.763855,261.341125 
	C978.297546,256.465851 973.397766,255.141312 968.205078,256.190155 
	C965.937500,256.648193 964.085022,259.161224 962.044006,260.740997 
	C963.670227,262.503113 964.983032,265.102356 966.987976,265.852966 
	C971.153931,267.412628 975.793579,267.662567 980.047241,269.041168 
	C989.807922,272.204437 992.769165,276.789246 992.032043,287.980438 
	C991.607666,294.424225 986.866760,299.175934 978.482361,301.000092 
	C968.507751,303.170288 959.144775,302.241760 950.955505,295.454224 
	C948.486328,293.407745 948.517151,292.199799 951.276917,289.944855 
	C955.233459,286.711975 958.081055,285.317383 962.896912,288.986328 
	C966.760315,291.929688 972.192566,291.626190 976.767944,289.516357 
	C978.238647,288.838165 979.603699,286.470642 979.713684,284.790680 
	C979.793152,283.575531 977.948608,281.498566 976.565063,281.060822 
	C972.304993,279.712921 967.843262,279.013672 963.480164,277.977356 
	C957.361450,276.524078 951.624756,273.488068 950.391174,267.243011 
	C949.168030,261.051300 948.364563,253.938904 955.038025,248.995071 
z"/>
<path fill="#003057" opacity="1.000000" stroke="none" 
	d="
M778.815430,134.658539 
	C789.181152,129.641876 799.060120,129.329559 808.516785,135.955444 
	C810.244324,137.165863 811.701538,138.762054 813.584534,140.449921 
	C812.046448,141.284225 811.251343,141.552429 810.663696,142.060608 
	C806.673645,145.511017 803.654785,147.810013 797.607056,143.679565 
	C790.348999,138.722488 781.010132,145.511444 781.054688,154.653732 
	C781.078552,159.555344 781.335449,164.505569 782.093506,169.338776 
	C782.750854,173.529495 785.574768,176.555664 789.936340,176.901031 
	C794.765198,177.283386 799.926147,177.622818 802.826355,171.743744 
	C806.102600,173.831787 809.345093,175.898315 813.081238,178.279495 
	C811.894592,179.866455 811.009033,181.549149 809.682983,182.742416 
	C801.661072,189.960846 791.975952,189.443512 782.868958,186.665161 
	C774.593689,184.140549 769.506897,177.471649 769.060791,168.372940 
	C768.743103,161.893433 768.442322,155.322601 769.166016,148.908981 
	C769.835205,142.977493 772.806641,137.835693 778.815430,134.658539 
z"/>
<path fill="#003057" opacity="1.000000" stroke="none" 
	d="
M765.000000,279.999878 
	C765.000000,272.198730 765.000000,264.897522 765.000000,257.252472 
	C762.711243,257.107635 760.638062,256.976471 758.284546,256.827545 
	C758.284546,253.379868 758.284546,249.973831 758.284546,246.189240 
	C760.319946,246.083160 762.396484,245.974945 763.230896,245.931458 
	C765.373657,239.672852 765.858215,232.514069 769.683716,228.756958 
	C773.253601,225.250824 780.373047,225.358917 786.627808,223.689987 
	C786.627808,228.937454 786.627808,232.797012 786.627808,236.660095 
	C777.841431,237.515259 777.841431,237.515259 778.124512,245.784943 
	C780.855591,245.784943 783.611694,245.784943 786.684204,245.784943 
	C786.684204,249.567596 786.684204,252.970520 786.684204,256.797729 
	C784.068481,256.797729 781.329956,256.797729 778.184082,256.797729 
	C778.184082,271.599609 778.184082,285.995331 778.184082,300.693512 
	C773.722900,300.693512 769.658691,300.693512 765.000000,300.693512 
	C765.000000,294.017090 765.000000,287.258484 765.000000,279.999878 
z"/>
<path fill="#003057" opacity="1.000000" stroke="none" 
	d="
M980.000000,130.000946 
	C980.000000,142.833633 979.999268,155.166626 980.000244,167.499619 
	C980.000732,173.940094 981.105408,175.210632 987.838623,176.368698 
	C987.838623,179.647522 987.838623,182.956635 987.838623,186.284729 
	C977.028320,189.416367 966.551697,183.345749 966.879028,170.094070 
	C967.351746,150.955322 967.000000,131.796204 967.000000,112.323204 
	C971.247498,112.323204 975.314514,112.323204 980.000000,112.323204 
	C980.000000,117.971001 980.000000,123.736130 980.000000,130.000946 
z"/>
<path fill="#003057" opacity="1.000000" stroke="none" 
	d="
M1250.000000,128.002609 
	C1250.000000,122.529846 1250.000000,117.556343 1250.000000,112.293167 
	C1254.303589,112.293167 1258.370483,112.293167 1263.000000,112.293167 
	C1263.000000,118.530342 1263.000000,124.796555 1263.000000,131.062759 
	C1263.000000,143.053787 1262.996948,155.044815 1263.001221,167.035843 
	C1263.003662,173.890869 1264.022339,175.127396 1270.869995,176.508057 
	C1270.869995,179.778412 1270.869995,183.075684 1270.869995,187.329636 
	C1267.087646,186.879959 1263.411255,186.686691 1259.842041,185.964127 
	C1253.772339,184.735321 1250.094604,179.323441 1250.030151,170.969818 
	C1249.920776,156.814590 1250.000000,142.657928 1250.000000,128.002609 
z"/>
<path fill="#003057" opacity="1.000000" stroke="none" 
	d="
M938.238525,182.725525 
	C936.644470,178.014771 934.282410,173.606781 934.181030,169.147400 
	C933.753540,150.339920 934.000183,131.517136 934.000183,112.350121 
	C938.192505,112.350121 942.258667,112.350121 947.000000,112.350121 
	C947.000000,113.742905 947.000000,115.331345 947.000000,116.919792 
	C947.000000,133.579834 946.984070,150.239883 947.007629,166.899887 
	C947.017334,173.776001 948.223022,175.214554 954.845337,176.407654 
	C954.845337,179.681900 954.845337,182.986084 954.845337,186.627319 
	C948.919006,187.672287 943.401733,186.896088 938.238525,182.725525 
z"/>
<path fill="#003057" opacity="1.000000" stroke="none" 
	d="
M1092.232422,136.734497 
	C1094.112305,138.860077 1093.701904,140.379517 1091.749512,141.702759 
	C1089.207153,143.426041 1086.692993,145.191147 1083.878540,147.137573 
	C1081.531616,142.584137 1077.225220,141.597977 1073.117432,143.211777 
	C1069.033203,144.816345 1066.803101,148.422638 1066.920044,153.409286 
	C1067.177490,164.379013 1067.000000,175.358948 1067.000000,186.667023 
	C1062.773682,186.667023 1058.707886,186.667023 1054.318115,186.667023 
	C1054.318115,168.757233 1054.318115,150.700729 1054.318115,131.998367 
	C1058.730225,132.524582 1063.494873,130.793335 1068.643066,133.786667 
	C1075.915894,129.106125 1084.752441,129.804123 1092.232422,136.734497 
z"/>
<path fill="#003057" opacity="1.000000" stroke="none" 
	d="
M1295.000000,146.999954 
	C1295.000000,153.995178 1294.912598,160.491928 1295.026245,166.985184 
	C1295.126953,172.733765 1297.424194,175.413559 1302.860840,176.428818 
	C1302.860840,179.705490 1302.860840,183.009537 1302.854248,186.314056 
	C1290.524780,189.166565 1283.000366,183.370132 1283.000122,171.023788 
	C1282.999634,151.556686 1283.000000,132.089584 1283.000000,112.311630 
	C1286.934814,112.311630 1290.668823,112.311630 1295.000000,112.311630 
	C1295.000000,123.649391 1295.000000,135.074677 1295.000000,146.999954 
z"/>
<path fill="#003057" opacity="1.000000" stroke="none" 
	d="
M1005.000000,272.000000 
	C1005.000000,263.200378 1005.000000,254.900772 1005.000000,246.301483 
	C1009.286743,246.301483 1013.350830,246.301483 1017.710449,246.301483 
	C1017.710449,264.295868 1017.710449,282.345428 1017.710449,300.698242 
	C1013.713806,300.698242 1009.649719,300.698242 1005.000000,300.698242 
	C1005.000000,291.341492 1005.000000,281.920746 1005.000000,272.000000 
z"/>
<path fill="#003057" opacity="1.000000" stroke="none" 
	d="
M720.121216,58.996037 
	C718.888733,57.317123 718.115723,55.641483 717.047363,53.325809 
	C722.497620,53.325809 726.908691,53.325809 731.990784,53.325809 
	C731.990784,58.212177 732.316711,63.326382 731.797485,68.353294 
	C731.636169,69.915276 729.439514,71.837189 727.734680,72.567902 
	C721.364441,75.298340 707.833191,75.446861 705.187988,68.176880 
	C702.905029,61.902187 702.727661,55.398106 703.572571,48.541092 
	C704.600952,40.195332 709.167664,36.206070 716.517273,35.434998 
	C720.614868,35.005108 725.521484,35.924702 728.964966,38.031590 
	C730.996094,39.274296 730.879761,44.026859 731.929626,47.949753 
	C727.829529,47.609505 724.033691,49.821671 723.743713,44.001110 
	C723.706970,43.262417 720.671631,41.865959 719.348572,42.171772 
	C716.838745,42.751842 712.787537,44.024113 712.507812,45.574009 
	C711.481812,51.258682 710.931030,57.294552 711.764709,62.968494 
	C712.477905,67.822517 720.990295,69.823593 724.022278,66.185760 
	C725.264893,64.694954 724.942017,61.899368 725.408813,59.258854 
	C723.448853,59.153492 722.014709,59.076401 720.121216,58.996037 
z"/>
<path fill="#003057" opacity="1.000000" stroke="none" 
	d="
M836.079285,47.000000 
	C838.521912,47.000000 840.493652,47.000000 843.065430,47.000000 
	C842.217590,49.385090 845.178955,52.502453 840.504333,53.307713 
	C840.160645,53.366920 840.030945,55.417179 840.021851,56.543545 
	C839.975037,62.364182 840.017273,68.185471 839.994751,74.006401 
	C839.975159,79.054749 836.961914,82.000221 832.669861,83.738319 
	C829.178406,85.152260 819.712708,83.565887 818.887024,81.051453 
	C818.313904,79.305702 820.032532,76.807419 820.810852,74.385185 
	C828.117371,79.133667 831.733704,78.269600 832.806091,72.435944 
	C830.275696,72.623833 827.736023,73.045883 825.217102,72.945442 
	C821.111511,72.781708 817.253113,68.787170 817.026123,64.659485 
	C816.889343,62.172264 816.998901,59.671421 817.000305,57.176697 
	C817.005005,48.519875 822.433960,44.282616 830.772156,46.346825 
	C832.341919,46.735447 833.994141,46.790836 836.079285,47.000000 
M824.272095,55.220787 
	C824.182861,57.537716 823.431580,60.108017 824.193542,62.099243 
	C824.933655,64.033401 827.023376,65.796944 828.957336,66.723053 
	C829.557678,67.010529 832.693298,64.351555 832.734436,62.983372 
	C832.827820,59.877350 831.926819,56.659042 830.837219,53.705051 
	C830.702332,53.339291 826.966858,54.301594 824.272095,55.220787 
z"/>
<path fill="#003057" opacity="1.000000" stroke="none" 
	d="
M1006.706299,66.507553 
	C1006.963806,63.120941 1007.430054,60.031155 1006.821228,57.170170 
	C1006.483521,55.583660 1004.550232,53.759926 1002.947876,53.240219 
	C1002.017273,52.938416 999.499329,54.769871 999.125244,56.056911 
	C998.186035,59.288322 998.059692,62.755970 997.607422,66.128883 
	C998.133057,66.025879 998.658691,65.922874 999.184326,65.819870 
	C1000.114624,67.784996 1001.044922,69.750130 1001.975220,71.715256 
	C1000.232666,72.476845 998.546936,73.656487 996.734375,73.902458 
	C993.984863,74.275581 991.147278,74.000000 987.340515,74.000000 
	C992.335754,61.217602 993.005737,48.822693 987.345276,36.214909 
	C991.421570,36.214909 994.496948,36.214909 997.839844,36.214909 
	C997.839844,39.994671 997.839844,43.607986 997.839844,47.312244 
	C1000.375061,46.841248 1002.633789,46.100868 1004.903625,46.064716 
	C1010.107605,45.981834 1013.885315,50.044899 1013.999634,55.457794 
	C1014.076538,59.101536 1012.722717,64.560425 1014.539062,65.987778 
	C1017.711792,68.481171 1016.620972,70.819511 1017.038574,73.699387 
	C1012.777588,73.699387 1008.700928,73.699387 1004.134460,73.699387 
	C1005.151733,71.460579 1001.234619,67.950523 1006.706299,66.507553 
z"/>
<path fill="#003057" opacity="1.000000" stroke="none" 
	d="
M923.000000,60.879875 
	C923.000000,63.012447 923.000000,64.662804 923.000000,66.650047 
	C924.320679,66.870262 925.524719,67.071030 926.835266,67.289543 
	C926.835266,69.429207 926.835266,71.388344 926.835266,73.999229 
	C923.149475,73.999229 919.374573,74.197556 915.641663,73.888893 
	C914.379028,73.784492 912.311523,72.483299 912.225708,71.576385 
	C912.088806,70.128967 913.218811,68.511177 913.971863,67.047050 
	C914.514099,65.992874 915.882507,65.086128 915.908203,64.088554 
	C916.083130,57.289494 915.999756,50.483799 915.999756,43.355927 
	C912.974548,42.779404 910.128174,41.866615 910.934692,46.839775 
	C908.572998,46.839775 906.612061,46.839775 904.323242,46.839775 
	C904.323242,43.487179 904.323242,40.076126 904.323242,36.329727 
	C914.201904,36.329727 924.257019,36.329727 934.657227,36.329727 
	C934.657227,39.533978 934.657227,42.926865 934.657227,46.781437 
	C933.124268,46.858692 931.397095,46.945736 929.356079,47.048595 
	C929.121765,45.672707 928.915833,44.463623 928.691833,43.148094 
	C926.865295,43.148094 925.231567,43.148094 923.000000,43.148094 
	C923.000000,48.863396 923.000000,54.630527 923.000000,60.879875 
z"/>
<path fill="#003057" opacity="1.000000" stroke="none" 
	d="
M865.002319,52.833244 
	C864.510803,49.076321 865.616455,47.100189 869.277893,46.914288 
	C872.517761,46.749790 875.916809,45.545010 878.941040,46.201733 
	C884.739563,47.460899 886.732117,49.755074 886.043152,54.858932 
	C885.778503,56.819794 885.829651,58.864758 886.043640,60.838135 
	C886.303345,63.232719 884.565979,66.289948 888.561646,67.681648 
	C889.308044,67.941643 888.958496,71.348358 889.168945,73.980934 
	C882.357239,73.980934 875.769287,74.268005 869.225220,73.856308 
	C866.089783,73.659058 864.095825,71.248497 864.001099,67.798096 
	C863.892212,63.835407 863.227661,59.411682 868.391418,58.092991 
	C871.992859,57.173279 875.793762,57.034721 879.486816,56.549694 
	C879.219299,52.070183 876.200134,51.598183 872.245361,52.237572 
	C872.092468,53.389095 871.946655,54.487175 871.739624,56.046871 
	C869.256775,55.374447 865.923218,57.826000 865.002319,52.833244 
M874.798279,63.000160 
	C873.301331,63.907997 871.804382,64.815834 870.307434,65.723679 
	C871.170288,66.481743 871.945740,67.738846 872.911865,67.908112 
	C876.376831,68.515190 879.444824,68.034744 879.855835,63.215424 
	C878.449829,63.143524 877.046631,63.071766 874.798279,63.000160 
z"/>
<path fill="#003057" opacity="1.000000" stroke="none" 
	d="
M748.404297,67.758133 
	C751.495239,67.127579 754.228760,66.300980 757.414429,65.337662 
	C758.191895,66.387268 759.335083,67.930557 760.526306,69.538666 
	C756.964966,73.982529 748.901855,75.865898 743.392456,73.121941 
	C738.250244,70.560860 735.359253,62.232796 737.230042,55.370094 
	C739.101379,48.505226 744.593811,44.916721 751.549622,46.014339 
	C757.627075,46.973358 761.018616,51.533558 761.000427,58.719109 
	C760.997192,60.006710 761.000000,61.294323 761.000000,62.936703 
	C755.518250,62.936703 750.409119,62.936703 745.299988,62.936703 
	C745.026184,63.346794 744.752441,63.756886 744.478699,64.166977 
	C745.668091,65.298683 746.857422,66.430382 748.404297,67.758133 
M753.940979,56.011597 
	C752.248108,54.685951 750.571289,52.355694 748.857666,52.328266 
	C747.268738,52.302841 745.640503,54.738007 743.191284,56.793079 
	C747.723389,56.793079 750.691345,56.793079 753.940979,56.011597 
z"/>
<path fill="#003057" opacity="1.000000" stroke="none" 
	d="
M951.669678,73.101929 
	C943.890930,75.257545 938.071838,73.961693 935.251343,69.639412 
	C932.127441,64.852356 932.242126,54.361553 935.465637,50.031513 
	C937.855957,46.820606 944.421631,45.128819 948.960144,46.427769 
	C953.938171,47.852535 956.399902,51.312099 956.958801,56.229412 
	C957.196960,58.325054 956.998657,60.470306 956.998657,62.819668 
	C951.343628,62.819668 946.059814,62.819668 940.715332,62.819668 
	C942.298279,69.011192 944.523987,69.374939 953.239319,64.923561 
	C954.465820,66.080322 955.765198,67.305779 957.706055,69.136192 
	C955.633301,70.554924 953.849731,71.775749 951.669678,73.101929 
M948.012390,56.998199 
	C948.544067,56.371975 949.075684,55.745754 949.607361,55.119537 
	C948.032043,54.090919 946.263611,52.034111 944.928467,52.284763 
	C943.115967,52.625023 941.634949,54.731194 940.011780,56.079956 
	C940.251343,56.386581 940.490967,56.693203 940.730530,56.999828 
	C942.878296,56.999828 945.026062,56.999828 948.012390,56.998199 
z"/>
<path fill="#003057" opacity="1.000000" stroke="none" 
	d="
M789.999939,58.236053 
	C789.668335,61.233131 789.663879,63.886078 788.942200,66.326981 
	C786.974976,72.980362 782.302551,75.215485 773.673462,73.992462 
	C769.213196,73.360306 765.816711,68.852379 766.081726,63.057510 
	C766.270630,58.924950 766.308838,54.381935 768.049133,50.821087 
	C770.489075,45.828690 776.013489,45.115555 780.941956,46.168331 
	C786.791809,47.417934 789.684753,51.805847 789.999939,58.236053 
M778.275818,53.003201 
	C776.519592,54.254398 773.351440,55.431320 773.280945,56.771202 
	C773.094910,60.307484 771.068054,64.987785 775.765625,67.111259 
	C777.232056,67.774147 780.468445,67.015594 781.460022,65.767754 
	C784.448059,62.007599 783.141846,56.530315 778.275818,53.003201 
z"/>
<path fill="#003057" opacity="1.000000" stroke="none" 
	d="
M962.000000,61.877605 
	C962.143982,56.981579 961.181519,52.405777 965.353577,48.867039 
	C969.708252,45.173328 977.983765,44.846775 982.284363,47.972870 
	C983.938232,49.175087 983.936951,52.654354 984.924316,55.856510 
	C981.251526,55.346989 977.998962,58.174042 976.337830,53.393990 
	C976.146484,52.843410 971.728821,52.758266 971.432983,53.421532 
	C970.177856,56.236210 969.204834,59.414738 969.205688,62.460033 
	C969.206238,64.220558 970.869690,66.763641 972.475708,67.558632 
	C974.933228,68.775131 978.111633,68.969658 976.928040,64.167526 
	C979.391479,64.167526 981.354553,64.167526 983.330139,64.167526 
	C985.218506,72.357727 983.903503,74.088593 975.407654,73.949890 
	C972.509399,73.902565 969.320190,73.926079 966.795288,72.763237 
	C962.610779,70.836075 961.468018,66.806465 962.000000,61.877605 
z"/>
<path fill="#003057" opacity="1.000000" stroke="none" 
	d="
M806.996826,69.192780 
	C806.999512,70.951355 806.999512,72.249115 806.999512,73.765717 
	C802.616577,73.765717 798.543701,73.765717 793.654480,73.765717 
	C794.819214,69.103333 796.713135,64.749062 796.770813,60.370598 
	C796.826843,56.113346 795.000854,51.831318 794.008667,47.591572 
	C799.643250,47.044289 805.002075,46.373253 810.381836,46.044033 
	C815.652588,45.721478 813.544495,49.795380 813.973572,52.316879 
	C813.609741,52.569740 813.354004,52.900276 813.081665,52.914623 
	C804.408386,53.371429 802.088501,56.410130 804.102966,65.217049 
	C804.405579,66.539917 805.998230,67.567688 806.996826,69.192780 
z"/>
<path fill="#003057" opacity="1.000000" stroke="none" 
	d="
M857.000122,63.739487 
	C858.269531,67.161507 859.538757,70.110840 861.119995,73.785095 
	C855.556885,73.785095 851.479126,73.785095 846.647705,73.785095 
	C847.823364,69.041801 849.708130,64.662407 849.771667,60.256756 
	C849.832825,56.015728 848.010864,51.747540 846.950500,47.209503 
	C850.445801,47.209503 853.519714,47.209503 857.000000,47.209503 
	C857.000000,52.694756 857.000000,57.980774 857.000122,63.739487 
z"/>
<path fill="#003057" opacity="1.000000" stroke="none" 
	d="
M1005.000000,233.893555 
	C1005.000000,230.786057 1005.000000,228.157242 1005.000000,225.265991 
	C1009.349182,225.265991 1013.409363,225.265991 1017.737366,225.265991 
	C1017.737366,229.357239 1017.737366,233.417099 1017.737366,237.999786 
	C1014.606018,237.999786 1011.485535,237.793015 1008.405762,238.058578 
	C1005.393799,238.318283 1004.594971,237.023788 1005.000000,233.893555 
z"/>
<path fill="#003057" opacity="1.000000" stroke="none" 
	d="
M851.193237,42.958458 
	C850.390381,40.875317 850.046692,38.826260 849.633057,36.359818 
	C852.142151,36.359818 854.214050,36.359818 856.647095,36.359818 
	C856.647095,38.155983 856.647095,40.228161 856.647095,42.992546 
	C855.147949,42.992546 853.400146,42.992546 851.193237,42.958458 
z"/>
<path fill="#FFFFFF" opacity="1.000000" stroke="none" 
	d="
M1443.227051,153.000000 
	C1441.619263,153.000000 1440.481201,153.000000 1439.367065,153.000000 
	C1439.057373,146.755096 1441.970581,142.823395 1447.250488,142.019852 
	C1452.341309,141.245087 1456.644775,145.486801 1457.924072,153.000000 
	C1453.126099,153.000000 1448.411377,153.000000 1443.227051,153.000000 
z"/>
<path fill="#FFFFFF" opacity="1.000000" stroke="none" 
	d="
M490.342926,343.822998 
	C488.248962,343.729889 486.512085,343.525085 484.661713,343.306915 
	C485.922852,341.373260 486.897339,339.879120 488.075531,338.072662 
	C489.376282,339.586700 490.756897,341.193726 492.143311,342.807465 
	C491.815857,343.012543 491.257935,343.361938 490.342926,343.822998 
z"/>
<path fill="#FFFFFF" opacity="1.000000" stroke="none" 
	d="
M860.764038,268.918915 
	C865.994751,270.637512 868.242065,274.424316 867.829224,279.085999 
	C867.306824,284.983673 862.713257,288.697876 856.529602,288.957092 
	C851.572021,289.164886 846.598755,288.999054 841.316895,288.999054 
	C841.316895,281.760406 841.316895,274.707855 841.316895,266.490540 
	C847.660767,267.277008 854.009033,268.063995 860.764038,268.918915 
z"/>
<path fill="#FFFFFF" opacity="1.000000" stroke="none" 
	d="
M860.584839,253.769592 
	C854.039612,254.911850 847.853210,255.853302 841.257874,256.856995 
	C841.257874,249.646194 841.257874,243.600723 841.257874,236.647964 
	C847.114197,237.073135 852.912720,237.450516 858.702759,237.930847 
	C862.165405,238.218109 864.509277,240.056870 864.946289,243.579620 
	C865.439697,247.556686 865.143799,251.391586 860.584839,253.769592 
z"/>
<path fill="#FFFFFF" opacity="1.000000" stroke="none" 
	d="
M1396.162842,143.636856 
	C1398.029175,146.169266 1400.809204,148.346893 1400.963745,150.697113 
	C1401.404785,157.408829 1401.688110,164.387146 1400.285156,170.882919 
	C1399.158691,176.097687 1394.524170,177.862976 1388.935669,176.933411 
	C1384.302368,176.162735 1381.417969,173.246140 1381.009155,168.385376 
	C1380.598633,163.505386 1379.739380,158.564056 1380.135498,153.736481 
	C1380.895142,144.478607 1386.768433,140.871185 1396.162842,143.636856 
z"/>
<path fill="#FFFFFF" opacity="1.000000" stroke="none" 
	d="
M1012.139771,146.369446 
	C1015.495972,142.717896 1018.969849,140.991776 1023.617920,142.980621 
	C1027.929932,144.825684 1028.597290,148.501633 1029.183228,152.744476 
	C1022.631958,152.744476 1016.413635,152.744476 1009.578186,152.744476 
	C1010.440613,150.469971 1011.161560,148.568695 1012.139771,146.369446 
z"/>
<path fill="#FFFFFF" opacity="1.000000" stroke="none" 
	d="
M1338.145508,142.620911 
	C1343.604126,144.040543 1344.035522,148.360840 1345.134277,152.717194 
	C1338.655762,152.717194 1332.470703,152.717194 1326.283203,152.717194 
	C1326.106079,145.585403 1330.569336,141.605347 1338.145508,142.620911 
z"/>
<path fill="#FFFFFF" opacity="1.000000" stroke="none" 
	d="
M908.988037,149.285797 
	C909.334656,150.565765 909.663635,151.439209 910.133545,152.686844 
	C903.318176,152.686844 896.820251,152.686844 890.331238,152.686844 
	C891.922058,145.527451 894.438538,142.266724 899.393555,142.093216 
	C904.068054,141.929550 907.228638,144.565598 908.988037,149.285797 
z"/>
<path fill="#FFFFFF" opacity="1.000000" stroke="none" 
	d="
M1106.288452,267.000000 
	C1104.679688,267.000000 1103.533813,267.000000 1102.341675,267.000000 
	C1103.837769,259.021606 1105.999512,256.251587 1110.779053,256.000183 
	C1117.833618,255.629074 1118.821655,256.557617 1122.007324,267.000000 
	C1116.807739,267.000000 1111.779541,267.000000 1106.288452,267.000000 
z"/>
<path fill="#FFFFFF" opacity="1.000000" stroke="none" 
	d="
M1219.996338,176.495621 
	C1208.124878,178.848236 1204.510498,172.136551 1205.034058,163.090347 
	C1205.324951,158.062866 1205.423584,152.923904 1206.606689,148.078812 
	C1207.627808,143.896057 1211.673706,142.142227 1215.728394,142.107452 
	C1220.354370,142.067780 1224.064331,144.760788 1225.377075,149.041046 
	C1227.801025,156.944214 1228.180054,165.036087 1223.978638,172.624069 
	C1223.184937,174.057922 1221.537964,175.019485 1219.996338,176.495621 
z"/>
<path fill="#FFFFFF" opacity="1.000000" stroke="none" 
	d="
M718.158508,284.413635 
	C717.687561,278.139069 716.823120,272.226715 717.161011,266.383881 
	C717.512817,260.299255 721.916077,256.223083 726.861023,256.000153 
	C733.371460,255.706650 737.797546,258.647217 738.641418,265.634521 
	C739.335876,271.385376 738.739563,277.443909 737.742126,283.197357 
	C736.995850,287.501831 733.653381,290.559814 728.994568,290.929993 
	C724.214050,291.309845 720.514099,289.201477 718.158508,284.413635 
z"/>
<path fill="#FFFFFF" opacity="1.000000" stroke="none" 
	d="
M824.585938,54.934647 
	C826.966858,54.301594 830.702332,53.339291 830.837219,53.705051 
	C831.926819,56.659042 832.827820,59.877350 832.734436,62.983372 
	C832.693298,64.351555 829.557678,67.010529 828.957336,66.723053 
	C827.023376,65.796944 824.933655,64.033401 824.193542,62.099243 
	C823.431580,60.108017 824.182861,57.537716 824.585938,54.934647 
z"/>
<path fill="#FFFFFF" opacity="1.000000" stroke="none" 
	d="
M875.220825,63.000084 
	C877.046631,63.071766 878.449829,63.143524 879.855835,63.215424 
	C879.444824,68.034744 876.376831,68.515190 872.911865,67.908112 
	C871.945740,67.738846 871.170288,66.481743 870.307434,65.723679 
	C871.804382,64.815834 873.301331,63.907997 875.220825,63.000084 
z"/>
<path fill="#FFFFFF" opacity="1.000000" stroke="none" 
	d="
M753.800171,56.402336 
	C750.691345,56.793079 747.723389,56.793079 743.191284,56.793079 
	C745.640503,54.738007 747.268738,52.302841 748.857666,52.328266 
	C750.571289,52.355694 752.248108,54.685951 753.800171,56.402336 
z"/>
<path fill="#FFFFFF" opacity="1.000000" stroke="none" 
	d="
M947.593140,56.999016 
	C945.026062,56.999828 942.878296,56.999828 940.730530,56.999828 
	C940.490967,56.693203 940.251343,56.386581 940.011780,56.079956 
	C941.634949,54.731194 943.115967,52.625023 944.928467,52.284763 
	C946.263611,52.034111 948.032043,54.090919 949.607361,55.119534 
	C949.075684,55.745754 948.544067,56.371975 947.593140,56.999016 
z"/>
<path fill="#FFFFFF" opacity="1.000000" stroke="none" 
	d="
M778.685181,53.018154 
	C783.141846,56.530315 784.448059,62.007599 781.460022,65.767754 
	C780.468445,67.015594 777.232056,67.774147 775.765625,67.111259 
	C771.068054,64.987785 773.094910,60.307484 773.280945,56.771202 
	C773.351440,55.431320 776.519592,54.254398 778.685181,53.018154 
z"/>
</svg>